#N canvas 600 109 1440 726 10;
#N canvas 428 649 361 337 ddsp 0;
#X obj 201 41 loadbang;
#X obj 201 63 t b b;
#X msg 201 85 16000;
#X obj 201 107 /;
#X msg 201 129 set 256 1 \$1;
#X obj 201 151 block~;
#X msg 241 85 44100;
#X obj 58 189 ddsp~;
#X obj 134 278 outlet~;
#X obj 31 59 inlet~;
#X obj 95 59 inlet~;
#X connect 0 0 1 0;
#X connect 1 0 2 0;
#X connect 1 1 6 0;
#X connect 2 0 3 0;
#X connect 3 0 4 0;
#X connect 4 0 5 0;
#X connect 7 0 8 0;
#X connect 9 0 7 0;
#X connect 10 0 7 1;
#X restore 237 353 pd ddsp;
#X obj 225 437 dac~;
#X obj 214 29 mrpeach/udpreceive 7527;
#X obj 214 51 mrpeach/unpackOSC;
#X obj 101 130 sig~;
#X obj 273 286 sig~;
#X obj 267 322 lop~ 1;
#X obj 100 52 notein;
#X obj 100 74 stripnote;
#X obj 100 96 mtof;
#X obj 193 286 lop~ 10;
#X obj 207 388 freeverb~;
#X obj 214 73 route /1/fader1;
#X obj 455 144 f;
#X obj 422 142 -;
#X obj 421 96 t f b;
#X obj 452 199 timer;
#X obj 434 230 /;
#X obj 429 166 t f b b;
#X obj 434 250 abs;
#X obj 434 269 log;
#X obj 403 197 * 1000;
#X obj 434 288 + 1;
#X obj 16 154 loadbang;
#X obj 242 139 ctlin;
#X obj 242 161 / 127;
#X obj 188 160 osc~ 5;
#X obj 188 179 *~;
#X obj 157 225 +~;
#X obj 398 450 writesf~ 2;
#X msg 451 369 open rec.wav;
#X msg 553 361 stop;
#X msg 526 394 start;
#X msg 67 250 roomsize 0.9;
#X connect 0 0 11 0;
#X connect 2 0 3 0;
#X connect 3 0 12 0;
#X connect 4 0 28 0;
#X connect 5 0 6 0;
#X connect 6 0 0 1;
#X connect 7 0 8 0;
#X connect 7 1 8 1;
#X connect 8 0 9 0;
#X connect 9 0 4 0;
#X connect 10 0 0 0;
#X connect 11 0 1 0;
#X connect 11 0 29 0;
#X connect 11 1 1 1;
#X connect 11 1 29 1;
#X connect 12 0 15 0;
#X connect 13 0 14 1;
#X connect 14 0 18 0;
#X connect 15 0 14 0;
#X connect 15 0 13 1;
#X connect 15 1 13 0;
#X connect 16 0 17 1;
#X connect 17 0 19 0;
#X connect 18 0 21 0;
#X connect 18 1 16 0;
#X connect 18 2 16 1;
#X connect 19 0 20 0;
#X connect 20 0 22 0;
#X connect 21 0 17 0;
#X connect 22 0 5 0;
#X connect 23 0 33 0;
#X connect 24 0 25 0;
#X connect 25 0 27 1;
#X connect 26 0 27 0;
#X connect 27 0 28 1;
#X connect 28 0 10 0;
#X connect 30 0 29 0;
#X connect 31 0 29 0;
#X connect 32 0 29 0;
#X connect 33 0 11 0;
