#N canvas 635 680 1453 370 12;
#X obj 339 58 bng 15 250 50 0 empty empty empty 17 7 0 10 #fcfcfc #000000
#000000;
#X obj 328 93 openpanel;
#X msg 328 122 open \$1 \, start;
#X obj 328 151 readsf~;
#X obj 333 265 writesf~ 3;
#X obj 141 174 t b;
#X obj 274 154 dac~;
#X msg 470 188 stop;
#X msg 69 231 open -bytes 4 preprocessed.wav \, start;
#X obj 811 34 bng 15 250 50 0 empty empty empty 17 7 0 10 #fcfcfc #000000
#000000;
#X obj 811 58 openpanel;
#X msg 811 87 open \$1 \, start;
#X obj 811 116 readsf~;
#X obj 811 201 ddsp~;
#X obj 930 250 table impulse;
#X obj 811 230 bsaylor/partconv~ impulse 2048;
#X obj 657 35 bng 15 250 50 0 empty empty empty 17 7 0 10 #fcfcfc #000000
#000000;
#X obj 657 59 openpanel;
#X msg 657 88 load \$1;
#X obj 1021 33 bng 15 250 50 0 empty empty empty 17 7 0 10 #fcfcfc
#000000 #000000;
#X obj 1021 57 openpanel;
#X msg 1021 86 read -resize \$1 impulse;
#X obj 1021 115 soundfiler;
#X obj 1021 144 t b;
#X msg 1021 173 set impulse;
#X text 653 10 load pretrained state;
#X text 809 10 load input audio;
#X text 1020 9 load impulse response;
#N canvas 0 22 450 300 (subpatch) 0;
#X array oscillo 480 float 0 black black;
#X coords 0 1 479 -1 200 100 1;
#X restore 1211 33 graph;
#X obj 811 259 clip~ -1 1;
#X obj 726 184 vsl 15 128 0 100 0 0 empty empty empty 0 -9 0 10 #f8f8f6
#000000 #000000 0 1;
#X obj 726 326 dbtorms;
#X obj 811 317 dac~;
#X obj 811 288 *~ 0;
#N canvas 0 22 450 300 (subpatch) 0;
#X array pitch 480 float 2 black black;
#X coords 0 127 480 0 200 100 1;
#X restore 1211 142 graph;
#N canvas 0 22 450 300 (subpatch) 0;
#X array loudness 480 float 2 black black;
#X coords 0 100 480 0 200 100 1;
#X restore 1211 248 graph;
#X obj 328 185 preprocess;
#X obj 811 145 preprocess;
#X obj 874 118 tgl 15 0 empty empty empty 17 7 0 10 #fcfcfc #000000
#000000 0 1;
#X obj 395 155 tgl 15 0 empty empty empty 17 7 0 10 #fcfcfc #000000
#000000 0 1;
#X text 412 153 display;
#X text 890 115 display;
#X obj 515 61 loadbang;
#X msg 515 119 1024;
#X obj 554 119 samplerate~;
#X obj 515 148 /;
#X obj 515 90 t b b;
#X obj 514 234 delread~ delay;
#X obj 515 177 * 1000;
#X obj 515 206 / 2;
#X obj 177 193 delwrite~ delay 1000;
#X text 16 26 PREPROCESS AUDIO Press the button and select your source
audio file to start preprocessing. The resulting preprocessed file
will be saved alongside this patch, f 33;
#X connect 0 0 1 0;
#X connect 1 0 2 0;
#X connect 1 0 5 0;
#X connect 2 0 3 0;
#X connect 3 0 36 0;
#X connect 3 0 50 0;
#X connect 3 0 6 0;
#X connect 3 0 6 1;
#X connect 3 1 7 0;
#X connect 5 0 8 0;
#X connect 7 0 3 0;
#X connect 7 0 4 0;
#X connect 8 0 4 0;
#X connect 9 0 10 0;
#X connect 10 0 11 0;
#X connect 11 0 12 0;
#X connect 12 0 37 0;
#X connect 13 0 15 0;
#X connect 15 0 29 0;
#X connect 16 0 17 0;
#X connect 17 0 18 0;
#X connect 18 0 13 0;
#X connect 19 0 20 0;
#X connect 20 0 21 0;
#X connect 21 0 22 0;
#X connect 22 0 23 0;
#X connect 23 0 24 0;
#X connect 24 0 15 0;
#X connect 29 0 33 0;
#X connect 30 0 31 0;
#X connect 31 0 33 1;
#X connect 33 0 32 0;
#X connect 33 0 32 1;
#X connect 36 0 4 1;
#X connect 36 1 4 2;
#X connect 37 0 13 0;
#X connect 37 1 13 1;
#X connect 38 0 37 1;
#X connect 39 0 36 1;
#X connect 42 0 46 0;
#X connect 43 0 45 0;
#X connect 44 0 45 1;
#X connect 45 0 48 0;
#X connect 46 0 43 0;
#X connect 46 1 44 0;
#X connect 47 0 4 0;
#X connect 48 0 49 0;
#X connect 49 0 47 0;
